<?xml version="1.0" encoding="UTF-8" standalone="no"?>
<svg
   xmlns:dc="http://purl.org/dc/elements/1.1/"
   xmlns:cc="http://creativecommons.org/ns#"
   xmlns:rdf="http://www.w3.org/1999/02/22-rdf-syntax-ns#"
   xmlns:svg="http://www.w3.org/2000/svg"
   xmlns="http://www.w3.org/2000/svg"
   xmlns:xlink="http://www.w3.org/1999/xlink"
   xmlns:sodipodi="http://sodipodi.sourceforge.net/DTD/sodipodi-0.dtd"
   xmlns:inkscape="http://www.inkscape.org/namespaces/inkscape"
   width="210mm"
   height="297mm"
   viewBox="0 0 210 297"
   version="1.1"
   id="svg8"
   inkscape:version="1.0.1 (3bc2e813f5, 2020-09-07)"
   sodipodi:docname="logo.svg">
  <style
     id="style833"></style>
  <defs
     id="defs2">
    <linearGradient
       inkscape:collect="always"
       id="linearGradient939">
      <stop
         style="stop-color:#ffe161;stop-opacity:1;"
         offset="0"
         id="stop935" />
      <stop
         style="stop-color:#ffe780;stop-opacity:1"
         offset="1"
         id="stop937" />
    </linearGradient>
    <linearGradient
       inkscape:collect="always"
       id="linearGradient931">
      <stop
         style="stop-color:#316a99;stop-opacity:1;"
         offset="0"
         id="stop927" />
      <stop
         style="stop-color:#285a81;stop-opacity:0.96078432"
         offset="1"
         id="stop929" />
    </linearGradient>
    <inkscape:path-effect
       effect="bspline"
       id="path-effect841"
       is_visible="true"
       lpeversion="1"
       weight="33.333333"
       steps="2"
       helper_size="0"
       apply_no_weight="true"
       apply_with_weight="true"
       only_selected="false" />
    <linearGradient
       inkscape:collect="always"
       xlink:href="#linearGradient931"
       id="linearGradient933"
       x1="310.82462"
       y1="418.52243"
       x2="247.07008"
       y2="343.37845"
       gradientUnits="userSpaceOnUse"
       gradientTransform="matrix(0.26458333,0,0,0.26458333,-39.521176,1.7429614)" />
    <linearGradient
       inkscape:collect="always"
       xlink:href="#linearGradient939"
       id="linearGradient941"
       x1="145.93738"
       y1="103.12438"
       x2="126.27985"
       y2="82.325409"
       gradientUnits="userSpaceOnUse"
       gradientTransform="translate(-39.521176,1.7429614)" />
    <linearGradient
       inkscape:collect="always"
       xlink:href="#linearGradient931"
       id="linearGradient984"
       gradientUnits="userSpaceOnUse"
       gradientTransform="matrix(0.26458333,0,0,0.26458333,-39.521176,1.7429614)"
       x1="310.82462"
       y1="418.52243"
       x2="247.07008"
       y2="343.37845" />
  </defs>
  <sodipodi:namedview
     id="base"
     pagecolor="#ffffff"
     bordercolor="#666666"
     borderopacity="1.0"
     inkscape:pageopacity="0.0"
     inkscape:pageshadow="2"
     inkscape:zoom="1.4"
     inkscape:cx="482.97634"
     inkscape:cy="335.77206"
     inkscape:document-units="mm"
     inkscape:current-layer="layer1"
     inkscape:document-rotation="0"
     showgrid="false"
     inkscape:window-width="2556"
     inkscape:window-height="1400"
     inkscape:window-x="0"
     inkscape:window-y="18"
     inkscape:window-maximized="0" />
  <metadata
     id="metadata5">
    <rdf:RDF>
      <cc:Work
         rdf:about="">
        <dc:format>image/svg+xml</dc:format>
        <dc:type
           rdf:resource="http://purl.org/dc/dcmitype/StillImage" />
        <dc:title></dc:title>
      </cc:Work>
    </rdf:RDF>
  </metadata>
  <g
     inkscape:label="Layer 1"
     inkscape:groupmode="layer"
     id="layer1">
    <text
       xml:space="preserve"
       style="font-size:10.5833px;line-height:1.25;font-family:sans-serif;-inkscape-font-specification:sans-serif;stroke-width:0.264583"
       x="160.0201"
       y="113.54662"
       id="text945"><tspan
         sodipodi:role="line"
         id="tspan943"
         x="160.0201"
         y="113.54662"
         style="stroke-width:0.264583" /></text>
    <g
       id="g982"
       transform="matrix(0.53914209,0,0,0.53914209,11.79958,28.320661)">
      <circle
         id="path835"
         style="fill:#ff0707;stroke:#d500cd;stroke-width:0.264583"
         cx="43.309238"
         cy="61.6087"
         r="0.024363955" />
      <path
         id="path839"
         style="fill:url(#linearGradient984);fill-opacity:1;stroke:none;stroke-width:0.264583px;stroke-linecap:butt;stroke-linejoin:miter;stroke-opacity:1"
         d="m 49.075483,74.517847 c -1.467853,0.09815 -5.908685,1.900227 -10.097577,5.539714 -4.468148,3.882117 -8.649657,9.854295 -11.046354,16.998444 -2.396693,7.144155 -3.008251,15.459635 -1.529104,22.249805 1.479146,6.79018 5.048573,12.05467 10.015408,16.67392 4.966835,4.61924 11.330675,8.59295 16.821195,10.16062 5.490522,1.56766 10.107488,0.72925 12.563575,-1.13327 2.456088,-1.86251 2.751003,-4.74908 2.944522,-7.02386 0.193521,-2.27478 0.285848,-3.9377 -1.207162,-5.01158 -1.493006,-1.07388 -4.659566,-1.57222 -9.959596,-4.00182 -5.30003,-2.4296 -12.777245,-6.79745 -16.822229,-13.0359 -4.044985,-6.23845 -4.657,-14.34767 -3.301609,-20.850405 1.355394,-6.502733 4.678101,-11.398295 7.589203,-14.879193 2.911099,-3.4809 5.410062,-5.546846 4.282424,-5.683892 -0.07048,-0.0086 -0.15484,-0.0091 -0.252696,-0.0026 z M 59.624709,139.4467 a 2.1469364,2.1708889 0 0 1 2.147154,2.17093 2.1469364,2.1708889 0 0 1 -2.147154,2.17092 2.1469364,2.1708889 0 0 1 -2.146639,-2.17092 2.1469364,2.1708889 0 0 1 2.146639,-2.17093 z" />
      <path
         id="path839-3"
         style="fill:url(#linearGradient941);fill-opacity:1;stroke:none;stroke-width:0.264583px;stroke-linecap:butt;stroke-linejoin:miter;stroke-opacity:1"
         d="m 82.478874,143.01941 c 1.46786,-0.0981 5.90869,-1.90023 10.09758,-5.53972 4.46815,-3.88211 8.649656,-9.85429 11.046356,-16.99844 2.39669,-7.14415 3.00825,-15.45963 1.5291,-22.249808 -1.47915,-6.79018 -5.04857,-12.054674 -10.015406,-16.673924 -4.96683,-4.61925 -11.33067,-8.59296 -16.82119,-10.16062 -5.49053,-1.56766 -10.10749,-0.72925 -12.56358,1.13327 -2.45609,1.86251 -2.751,4.74908 -2.94452,7.02385 -0.19352,2.27478 -0.28585,3.9377 1.20716,5.01159 1.49301,1.07388 4.65957,1.57222 9.9596,4.00182 5.30003,2.429604 12.77724,6.797454 16.82223,13.035912 4.04498,6.23844 4.657,14.34767 3.30161,20.8504 -1.3554,6.50273 -4.6781,11.39829 -7.58921,14.87919 -2.9111,3.4809 -5.41006,5.54685 -4.28242,5.68389 0.0705,0.009 0.15484,0.009 0.25269,0.003 z M 71.929654,78.090548 a 2.1469364,2.1708889 0 0 1 -2.14716,-2.17093 2.1469364,2.1708889 0 0 1 2.14716,-2.17092 2.1469364,2.1708889 0 0 1 2.14664,2.17092 2.1469364,2.1708889 0 0 1 -2.14664,2.17093 z" />
      <text
         xml:space="preserve"
         style="font-style:normal;font-variant:normal;font-weight:normal;font-stretch:normal;font-size:18.452px;line-height:1.25;font-family:'Linux Libertine';-inkscape-font-specification:'Linux Libertine';stroke-width:0.4613"
         x="49.686871"
         y="77.642731"
         id="text871"><tspan
           sodipodi:role="line"
           id="tspan869"
           x="49.686871"
           y="77.642731"
           style="font-style:normal;font-variant:normal;font-weight:normal;font-stretch:normal;font-family:'Linux Libertine';-inkscape-font-specification:'Linux Libertine';stroke-width:0.4613">x</tspan></text>
      <text
         xml:space="preserve"
         style="font-style:normal;font-variant:normal;font-weight:normal;font-stretch:normal;font-size:6.53303px;line-height:1.25;font-family:'Linux Libertine';-inkscape-font-specification:'Linux Libertine';stroke-width:0.163326"
         x="58.664982"
         y="78.916725"
         id="text871-6"><tspan
           sodipodi:role="line"
           id="tspan869-1"
           x="58.664982"
           y="78.916725"
           style="font-style:normal;font-variant:normal;font-weight:normal;font-stretch:normal;font-family:'Linux Libertine';-inkscape-font-specification:'Linux Libertine';stroke-width:0.163326">n</tspan></text>
      <text
         xml:space="preserve"
         style="font-style:normal;font-variant:normal;font-weight:normal;font-stretch:normal;font-size:22.3363px;line-height:1.25;font-family:'Linux Libertine';-inkscape-font-specification:'Linux Libertine';stroke-width:0.558406"
         x="71.189201"
         y="145.72777"
         id="text871-5"><tspan
           sodipodi:role="line"
           id="tspan869-5"
           x="71.189201"
           y="145.72777"
           style="font-style:normal;font-variant:normal;font-weight:normal;font-stretch:normal;font-family:'Linux Libertine';-inkscape-font-specification:'Linux Libertine';stroke-width:0.558406">P</tspan></text>
      <text
         xml:space="preserve"
         style="font-style:normal;font-variant:normal;font-weight:normal;font-stretch:normal;font-size:78.4313px;line-height:1.25;font-family:'Linux Libertine';-inkscape-font-specification:'Linux Libertine';stroke-width:1.96078"
         x="113.31918"
         y="119.61442"
         id="text871-5-4"><tspan
           sodipodi:role="line"
           id="tspan869-5-7"
           x="113.31918"
           y="119.61442"
           style="font-style:normal;font-variant:normal;font-weight:normal;font-stretch:normal;font-family:'Linux Libertine';-inkscape-font-specification:'Linux Libertine';stroke-width:1.96078">LooPy</tspan></text>
      <text
         xml:space="preserve"
         style="font-style:normal;font-variant:normal;font-weight:normal;font-stretch:normal;font-size:12.5891px;line-height:1.25;font-family:'Nimbus Sans';-inkscape-font-specification:'Nimbus Sans';stroke-width:0.314726"
         x="112.93833"
         y="134.29166"
         id="text967"><tspan
           sodipodi:role="line"
           id="tspan965"
           x="112.93833"
           y="134.29166"
           style="font-style:normal;font-variant:normal;font-weight:normal;font-stretch:normal;font-family:'Nimbus Sans';-inkscape-font-specification:'Nimbus Sans';stroke-width:0.314726">LOOP / WHILE SIMULATOR</tspan></text>
    </g>
  </g>
</svg>
